<svg viewBox="0 0 224 291" fill="none" xmlns="http://www.w3.org/2000/svg">
  <path d="M101.635 286.568L71.4839 256.414C65.6092 250.539 65.6092 241.03 71.4839 235.155L142.52 164.11C144.474 162.156 147.643 162.156 149.61 164.11L176.216 190.719C178.17 192.673 181.339 192.673 183.305 190.719L189.719 184.305C191.673 182.35 191.673 179.181 189.719 177.214L163.113 150.605C161.159 148.651 161.159 145.481 163.113 143.514L191.26 115.365C193.214 113.41 193.214 110.241 191.26 108.274L182.316 99.3291C180.362 97.3748 177.193 97.3748 175.226 99.3291L55.8638 218.706C49.989 224.581 40.4816 224.581 34.6068 218.706L4.4061 188.501C-1.4687 182.626 -1.4687 173.117 4.4061 167.242L23.8342 147.811C25.7883 145.857 25.7883 142.688 23.8342 140.721L4.78187 121.666C-1.09293 115.791 -1.09293 106.282 4.78187 100.406L34.7195 70.4527C40.5943 64.5772 50.1017 64.5772 55.9765 70.4527L75.555 90.0335C77.5091 91.9879 80.6782 91.9879 82.6448 90.0335L124.144 48.5292C126.098 46.5749 126.098 43.4054 124.144 41.4385L115.463 32.7568C113.509 30.8025 110.34 30.8025 108.374 32.7568L99.8683 41.2632C97.9143 43.2175 94.7451 43.2175 92.7785 41.2632L82.1438 30.6271C80.1897 28.6728 80.1897 25.5033 82.1438 23.5364L101.271 4.40662C107.146 -1.46887 116.653 -1.46887 122.528 4.40662L152.478 34.3604C158.353 40.2359 158.353 49.7444 152.478 55.6199L82.6323 125.474C80.6782 127.429 77.5091 127.429 75.5425 125.474L48.8741 98.8029C46.9201 96.8486 43.7509 96.8486 41.7843 98.8029L33.1036 107.485C31.1496 109.439 31.1496 112.608 33.1036 114.575L59.2458 140.721C61.1999 142.675 61.1999 145.844 59.2458 147.811L32.7404 174.32C30.7863 176.274 30.7863 179.444 32.7404 181.411L41.6841 190.355C43.6382 192.31 46.8073 192.31 48.7739 190.355L168.136 70.9789C174.011 65.1034 183.518 65.1034 189.393 70.9789L219.594 101.183C225.469 107.059 225.469 116.567 219.594 122.443L198.537 143.502C196.583 145.456 196.583 148.626 198.537 150.592L218.053 170.111C223.928 175.986 223.928 185.495 218.053 191.37L190.37 219.056C184.495 224.932 174.988 224.932 169.113 219.056L149.597 199.538C147.643 197.584 144.474 197.584 142.508 199.538L99.8057 242.245C97.8516 244.2 97.8516 247.369 99.8057 249.336L108.699 258.231C110.653 260.185 113.823 260.185 115.789 258.231L122.954 251.065C124.908 249.11 128.077 249.11 130.044 251.065L140.679 261.701C142.633 263.655 142.633 266.825 140.679 268.791L122.879 286.593C117.004 292.469 107.497 292.469 101.622 286.593L101.635 286.568Z" fill="#424242"/>
</svg>